solid OpenSCAD_Model
  facet normal -1 0 0
    outer loop
      vertex 0 4 0
      vertex 0 3 1
      vertex 0 4 5
    endloop
  endfacet
  facet normal -1 0 0
    outer loop
      vertex 0 4 0
      vertex 0 1 1
      vertex 0 3 1
    endloop
  endfacet
  facet normal -1 0 0
    outer loop
      vertex 0 0 0
      vertex 0 1 1
      vertex 0 4 0
    endloop
  endfacet
  facet normal -1 0 0
    outer loop
      vertex 0 0 5
      vertex 0 1 1
      vertex 0 0 0
    endloop
  endfacet
  facet normal -1 0 0
    outer loop
      vertex 0 1 1
      vertex 0 0 5
      vertex 0 1 5
    endloop
  endfacet
  facet normal -1 -0 0
    outer loop
      vertex 0 4 5
      vertex 0 3 1
      vertex 0 3 5
    endloop
  endfacet
  facet normal -0 0 1
    outer loop
      vertex 0 3 1
      vertex 2 1 1
      vertex 2 3 1
    endloop
  endfacet
  facet normal 0 0 1
    outer loop
      vertex 2 1 1
      vertex 0 3 1
      vertex 0 1 1
    endloop
  endfacet
  facet normal -0 0 1
    outer loop
      vertex 12 3 1
      vertex 14 1 1
      vertex 14 3 1
    endloop
  endfacet
  facet normal 0 0 1
    outer loop
      vertex 14 1 1
      vertex 12 3 1
      vertex 12 1 1
    endloop
  endfacet
  facet normal 0 0 1
    outer loop
      vertex 2 3 1
      vertex 12 3 1
      vertex 12 4 1
    endloop
  endfacet
  facet normal 0 0 1
    outer loop
      vertex 12 3 1
      vertex 2 3 1
      vertex 12 1 1
    endloop
  endfacet
  facet normal 0 0 1
    outer loop
      vertex 2 3 1
      vertex 12 4 1
      vertex 2 4 1
    endloop
  endfacet
  facet normal 0 0 1
    outer loop
      vertex 2 1 1
      vertex 12 1 1
      vertex 2 3 1
    endloop
  endfacet
  facet normal 0 0 1
    outer loop
      vertex 12 1 1
      vertex 2 1 1
      vertex 12 0 1
    endloop
  endfacet
  facet normal 0 0 1
    outer loop
      vertex 12 0 1
      vertex 2 1 1
      vertex 2 0 1
    endloop
  endfacet
  facet normal 1 0 0
    outer loop
      vertex 14 1 5
      vertex 14 0 5
      vertex 14 1 1
    endloop
  endfacet
  facet normal 1 0 0
    outer loop
      vertex 14 3 1
      vertex 14 4 5
      vertex 14 3 5
    endloop
  endfacet
  facet normal 1 0 0
    outer loop
      vertex 14 4 5
      vertex 14 3 1
      vertex 14 4 0
    endloop
  endfacet
  facet normal 1 -0 0
    outer loop
      vertex 14 1 1
      vertex 14 4 0
      vertex 14 3 1
    endloop
  endfacet
  facet normal 1 0 0
    outer loop
      vertex 14 1 1
      vertex 14 0 0
      vertex 14 4 0
    endloop
  endfacet
  facet normal 1 0 0
    outer loop
      vertex 14 0 0
      vertex 14 1 1
      vertex 14 0 5
    endloop
  endfacet
  facet normal 0 1 0
    outer loop
      vertex 14 4 5
      vertex 12 4 1
      vertex 12 4 5
    endloop
  endfacet
  facet normal 0 1 0
    outer loop
      vertex 12 4 1
      vertex 14 4 0
      vertex 2 4 1
    endloop
  endfacet
  facet normal 0 1 -0
    outer loop
      vertex 14 4 0
      vertex 12 4 1
      vertex 14 4 5
    endloop
  endfacet
  facet normal 0 1 -0
    outer loop
      vertex 2 4 1
      vertex 0 4 5
      vertex 2 4 5
    endloop
  endfacet
  facet normal 0 1 0
    outer loop
      vertex 2 4 1
      vertex 0 4 0
      vertex 0 4 5
    endloop
  endfacet
  facet normal 0 1 0
    outer loop
      vertex 0 4 0
      vertex 2 4 1
      vertex 14 4 0
    endloop
  endfacet
  facet normal 0 0 -1
    outer loop
      vertex 0 0 0
      vertex 14 4 0
      vertex 14 0 0
    endloop
  endfacet
  facet normal -0 0 -1
    outer loop
      vertex 14 4 0
      vertex 0 0 0
      vertex 0 4 0
    endloop
  endfacet
  facet normal 0 -1 0
    outer loop
      vertex 0 0 5
      vertex 2 0 1
      vertex 2 0 5
    endloop
  endfacet
  facet normal 0 -1 -0
    outer loop
      vertex 2 0 1
      vertex 0 0 0
      vertex 12 0 1
    endloop
  endfacet
  facet normal 0 -1 0
    outer loop
      vertex 0 0 0
      vertex 2 0 1
      vertex 0 0 5
    endloop
  endfacet
  facet normal 0 -1 0
    outer loop
      vertex 12 0 1
      vertex 14 0 5
      vertex 12 0 5
    endloop
  endfacet
  facet normal 0 -1 0
    outer loop
      vertex 12 0 1
      vertex 14 0 0
      vertex 14 0 5
    endloop
  endfacet
  facet normal 0 -1 0
    outer loop
      vertex 14 0 0
      vertex 12 0 1
      vertex 0 0 0
    endloop
  endfacet
  facet normal -0 0 1
    outer loop
      vertex 0 1 5
      vertex 2 0 5
      vertex 2 1 5
    endloop
  endfacet
  facet normal 0 0 1
    outer loop
      vertex 2 0 5
      vertex 0 1 5
      vertex 0 0 5
    endloop
  endfacet
  facet normal -0 0 1
    outer loop
      vertex 12 1 5
      vertex 14 0 5
      vertex 14 1 5
    endloop
  endfacet
  facet normal 0 0 1
    outer loop
      vertex 14 0 5
      vertex 12 1 5
      vertex 12 0 5
    endloop
  endfacet
  facet normal 0 1 -0
    outer loop
      vertex 14 1 1
      vertex 12 1 5
      vertex 14 1 5
    endloop
  endfacet
  facet normal 0 1 0
    outer loop
      vertex 12 1 5
      vertex 14 1 1
      vertex 12 1 1
    endloop
  endfacet
  facet normal 0 1 -0
    outer loop
      vertex 2 1 1
      vertex 0 1 5
      vertex 2 1 5
    endloop
  endfacet
  facet normal 0 1 0
    outer loop
      vertex 0 1 5
      vertex 2 1 1
      vertex 0 1 1
    endloop
  endfacet
  facet normal -0 0 1
    outer loop
      vertex 0 4 5
      vertex 2 3 5
      vertex 2 4 5
    endloop
  endfacet
  facet normal 0 0 1
    outer loop
      vertex 2 3 5
      vertex 0 4 5
      vertex 0 3 5
    endloop
  endfacet
  facet normal -0 0 1
    outer loop
      vertex 12 4 5
      vertex 14 3 5
      vertex 14 4 5
    endloop
  endfacet
  facet normal 0 0 1
    outer loop
      vertex 14 3 5
      vertex 12 4 5
      vertex 12 3 5
    endloop
  endfacet
  facet normal 0 -1 0
    outer loop
      vertex 0 3 1
      vertex 2 3 5
      vertex 0 3 5
    endloop
  endfacet
  facet normal 0 -1 -0
    outer loop
      vertex 2 3 5
      vertex 0 3 1
      vertex 2 3 1
    endloop
  endfacet
  facet normal 0 -1 0
    outer loop
      vertex 12 3 1
      vertex 14 3 5
      vertex 12 3 5
    endloop
  endfacet
  facet normal 0 -1 -0
    outer loop
      vertex 14 3 5
      vertex 12 3 1
      vertex 14 3 1
    endloop
  endfacet
  facet normal 1 -0 0
    outer loop
      vertex 2 3 5
      vertex 2 4 1
      vertex 2 4 5
    endloop
  endfacet
  facet normal 1 0 0
    outer loop
      vertex 2 4 1
      vertex 2 3 5
      vertex 2 3 1
    endloop
  endfacet
  facet normal 1 -0 0
    outer loop
      vertex 2 0 5
      vertex 2 1 1
      vertex 2 1 5
    endloop
  endfacet
  facet normal 1 0 0
    outer loop
      vertex 2 1 1
      vertex 2 0 5
      vertex 2 0 1
    endloop
  endfacet
  facet normal -1 0 0
    outer loop
      vertex 12 0 1
      vertex 12 1 5
      vertex 12 1 1
    endloop
  endfacet
  facet normal -1 -0 0
    outer loop
      vertex 12 1 5
      vertex 12 0 1
      vertex 12 0 5
    endloop
  endfacet
  facet normal -1 0 0
    outer loop
      vertex 12 3 1
      vertex 12 4 5
      vertex 12 4 1
    endloop
  endfacet
  facet normal -1 -0 0
    outer loop
      vertex 12 4 5
      vertex 12 3 1
      vertex 12 3 5
    endloop
  endfacet
endsolid OpenSCAD_Model
